<?xml version="1.0" encoding="UTF-8" standalone="no"?>
<!DOCTYPE svg PUBLIC "-//W3C//DTD SVG 1.1//EN"
 "http://www.w3.org/Graphics/SVG/1.1/DTD/svg11.dtd">
<!-- Generated by graphviz version 2.50.0 (0)
 -->
<!-- Pages: 1 -->
<svg width="806pt" height="589pt"
 viewBox="0.00 0.00 805.89 589.42" xmlns="http://www.w3.org/2000/svg" xmlns:xlink="http://www.w3.org/1999/xlink">
<g id="graph0" class="graph" transform="scale(1 1) rotate(0) translate(4 585.42)">
<polygon fill="white" stroke="transparent" points="-4,4 -4,-585.42 801.89,-585.42 801.89,4 -4,4"/>
<!-- 0 -->
<g id="node1" class="node">
<title>0</title>
<ellipse fill="none" stroke="black" cx="398.94" cy="-501.52" rx="173.48" ry="79.81"/>
<text text-anchor="middle" x="398.94" y="-542.82" font-family="Times New Roman,serif" font-size="14.00">0 &#45;&gt; {((2, 3), &#39;0&#39;, True), ((2, 1), &#39;0&#39;, True)}</text>
<text text-anchor="middle" x="398.94" y="-527.82" font-family="Times New Roman,serif" font-size="14.00">+++++</text>
<text text-anchor="middle" x="398.94" y="-512.82" font-family="Times New Roman,serif" font-size="14.00">+ 0 +</text>
<text text-anchor="middle" x="398.94" y="-497.82" font-family="Times New Roman,serif" font-size="14.00">+ &#160;&#160;+</text>
<text text-anchor="middle" x="398.94" y="-482.82" font-family="Times New Roman,serif" font-size="14.00">+++++</text>
<text text-anchor="middle" x="398.94" y="-467.82" font-family="Times New Roman,serif" font-size="14.00">False</text>
<text text-anchor="middle" x="398.94" y="-452.82" font-family="Times New Roman,serif" font-size="14.00">[NoOp]</text>
</g>
<!-- 1 -->
<g id="node2" class="node">
<title>1</title>
<ellipse fill="none" stroke="black" cx="398.94" cy="-290.71" rx="173.48" ry="79.81"/>
<text text-anchor="middle" x="398.94" y="-332.01" font-family="Times New Roman,serif" font-size="14.00">1 &#45;&gt; {((2, 3), &#39;0&#39;, True), ((2, 1), &#39;0&#39;, True)}</text>
<text text-anchor="middle" x="398.94" y="-317.01" font-family="Times New Roman,serif" font-size="14.00">+++++</text>
<text text-anchor="middle" x="398.94" y="-302.01" font-family="Times New Roman,serif" font-size="14.00">+ &#160;&#160;+</text>
<text text-anchor="middle" x="398.94" y="-287.01" font-family="Times New Roman,serif" font-size="14.00">+ 0 +</text>
<text text-anchor="middle" x="398.94" y="-272.01" font-family="Times New Roman,serif" font-size="14.00">+++++</text>
<text text-anchor="middle" x="398.94" y="-257.01" font-family="Times New Roman,serif" font-size="14.00">False</text>
<text text-anchor="middle" x="398.94" y="-242.01" font-family="Times New Roman,serif" font-size="14.00">[NoOp, Move(N)]</text>
</g>
<!-- 0&#45;&gt;1 -->
<g id="edge3" class="edge">
<title>0&#45;&gt;1</title>
<path fill="none" stroke="black" d="M398.94,-421.57C398.94,-408.32 398.94,-394.49 398.94,-381"/>
<polygon fill="black" stroke="black" points="402.44,-380.76 398.94,-370.76 395.44,-380.76 402.44,-380.76"/>
<text text-anchor="middle" x="423.44" y="-392.41" font-family="Times New Roman,serif" font-size="14.00">Move(S)</text>
</g>
<!-- 2 -->
<g id="node5" class="node">
<title>2</title>
<ellipse fill="none" stroke="black" cx="103.94" cy="-290.71" rx="103.89" ry="79.81"/>
<text text-anchor="middle" x="103.94" y="-332.01" font-family="Times New Roman,serif" font-size="14.00">2 &#45;&gt; {((2, 1), &#39;0&#39;, True)}</text>
<text text-anchor="middle" x="103.94" y="-317.01" font-family="Times New Roman,serif" font-size="14.00">+++++</text>
<text text-anchor="middle" x="103.94" y="-302.01" font-family="Times New Roman,serif" font-size="14.00">+0 &#160;+</text>
<text text-anchor="middle" x="103.94" y="-287.01" font-family="Times New Roman,serif" font-size="14.00">+ &#160;&#160;+</text>
<text text-anchor="middle" x="103.94" y="-272.01" font-family="Times New Roman,serif" font-size="14.00">+++++</text>
<text text-anchor="middle" x="103.94" y="-257.01" font-family="Times New Roman,serif" font-size="14.00">False</text>
<text text-anchor="middle" x="103.94" y="-242.01" font-family="Times New Roman,serif" font-size="14.00">[NoOp]</text>
</g>
<!-- 0&#45;&gt;2 -->
<g id="edge5" class="edge">
<title>0&#45;&gt;2</title>
<path fill="none" stroke="black" d="M305.2,-434.16C267.71,-407.63 224.86,-377.29 188.36,-351.46"/>
<polygon fill="black" stroke="black" points="190.37,-348.6 180.19,-345.68 186.33,-354.31 190.37,-348.6"/>
<text text-anchor="middle" x="288.44" y="-392.41" font-family="Times New Roman,serif" font-size="14.00">Move(W)</text>
</g>
<!-- 3 -->
<g id="node6" class="node">
<title>3</title>
<ellipse fill="none" stroke="black" cx="693.94" cy="-290.71" rx="103.89" ry="79.81"/>
<text text-anchor="middle" x="693.94" y="-332.01" font-family="Times New Roman,serif" font-size="14.00">3 &#45;&gt; {((2, 3), &#39;0&#39;, True)}</text>
<text text-anchor="middle" x="693.94" y="-317.01" font-family="Times New Roman,serif" font-size="14.00">+++++</text>
<text text-anchor="middle" x="693.94" y="-302.01" font-family="Times New Roman,serif" font-size="14.00">+ &#160;0+</text>
<text text-anchor="middle" x="693.94" y="-287.01" font-family="Times New Roman,serif" font-size="14.00">+ &#160;&#160;+</text>
<text text-anchor="middle" x="693.94" y="-272.01" font-family="Times New Roman,serif" font-size="14.00">+++++</text>
<text text-anchor="middle" x="693.94" y="-257.01" font-family="Times New Roman,serif" font-size="14.00">False</text>
<text text-anchor="middle" x="693.94" y="-242.01" font-family="Times New Roman,serif" font-size="14.00">[NoOp, Move(W)]</text>
</g>
<!-- 0&#45;&gt;3 -->
<g id="edge7" class="edge">
<title>0&#45;&gt;3</title>
<path fill="none" stroke="black" d="M492.69,-434.16C530.18,-407.63 573.03,-377.29 609.53,-351.46"/>
<polygon fill="black" stroke="black" points="611.56,-354.31 617.7,-345.68 607.52,-348.6 611.56,-354.31"/>
<text text-anchor="middle" x="580.94" y="-392.41" font-family="Times New Roman,serif" font-size="14.00">Move(E)</text>
</g>
<!-- 4 -->
<g id="node3" class="node">
<title>4</title>
<ellipse fill="none" stroke="black" cx="253.94" cy="-79.9" rx="103.89" ry="79.81"/>
<text text-anchor="middle" x="253.94" y="-121.2" font-family="Times New Roman,serif" font-size="14.00">4 &#45;&gt; {((2, 1), &#39;0&#39;, True)}</text>
<text text-anchor="middle" x="253.94" y="-106.2" font-family="Times New Roman,serif" font-size="14.00">+++++</text>
<text text-anchor="middle" x="253.94" y="-91.2" font-family="Times New Roman,serif" font-size="14.00">+ &#160;&#160;+</text>
<text text-anchor="middle" x="253.94" y="-76.2" font-family="Times New Roman,serif" font-size="14.00">+0 &#160;+</text>
<text text-anchor="middle" x="253.94" y="-61.2" font-family="Times New Roman,serif" font-size="14.00">+++++</text>
<text text-anchor="middle" x="253.94" y="-46.2" font-family="Times New Roman,serif" font-size="14.00">True</text>
<text text-anchor="middle" x="253.94" y="-31.2" font-family="Times New Roman,serif" font-size="14.00">[]</text>
</g>
<!-- 1&#45;&gt;4 -->
<g id="edge1" class="edge">
<title>1&#45;&gt;4</title>
<path fill="none" stroke="black" d="M346.6,-214.33C334.07,-196.29 320.68,-177.01 308.08,-158.86"/>
<polygon fill="black" stroke="black" points="310.93,-156.83 302.35,-150.61 305.18,-160.82 310.93,-156.83"/>
<text text-anchor="middle" x="358.44" y="-181.61" font-family="Times New Roman,serif" font-size="14.00">Move(W)</text>
</g>
<!-- 5 -->
<g id="node4" class="node">
<title>5</title>
<ellipse fill="none" stroke="black" cx="514.94" cy="-79.9" rx="103.89" ry="79.81"/>
<text text-anchor="middle" x="514.94" y="-121.2" font-family="Times New Roman,serif" font-size="14.00">5 &#45;&gt; {((2, 3), &#39;0&#39;, True)}</text>
<text text-anchor="middle" x="514.94" y="-106.2" font-family="Times New Roman,serif" font-size="14.00">+++++</text>
<text text-anchor="middle" x="514.94" y="-91.2" font-family="Times New Roman,serif" font-size="14.00">+ &#160;&#160;+</text>
<text text-anchor="middle" x="514.94" y="-76.2" font-family="Times New Roman,serif" font-size="14.00">+ &#160;0+</text>
<text text-anchor="middle" x="514.94" y="-61.2" font-family="Times New Roman,serif" font-size="14.00">+++++</text>
<text text-anchor="middle" x="514.94" y="-46.2" font-family="Times New Roman,serif" font-size="14.00">True</text>
<text text-anchor="middle" x="514.94" y="-31.2" font-family="Times New Roman,serif" font-size="14.00">[]</text>
</g>
<!-- 1&#45;&gt;5 -->
<g id="edge2" class="edge">
<title>1&#45;&gt;5</title>
<path fill="none" stroke="black" d="M441.48,-213.14C450.59,-196.74 460.25,-179.35 469.47,-162.76"/>
<polygon fill="black" stroke="black" points="472.74,-164.08 474.54,-153.64 466.62,-160.68 472.74,-164.08"/>
<text text-anchor="middle" x="485.94" y="-181.61" font-family="Times New Roman,serif" font-size="14.00">Move(E)</text>
</g>
<!-- 2&#45;&gt;4 -->
<g id="edge4" class="edge">
<title>2&#45;&gt;4</title>
<path fill="none" stroke="black" d="M153.68,-220.47C167.93,-200.65 183.54,-178.91 198.12,-158.61"/>
<polygon fill="black" stroke="black" points="201.09,-160.47 204.08,-150.31 195.41,-156.39 201.09,-160.47"/>
<text text-anchor="middle" x="208.44" y="-181.61" font-family="Times New Roman,serif" font-size="14.00">Move(S)</text>
</g>
<!-- 3&#45;&gt;5 -->
<g id="edge6" class="edge">
<title>3&#45;&gt;5</title>
<path fill="none" stroke="black" d="M637.31,-223.64C618.62,-201.84 597.71,-177.44 578.53,-155.08"/>
<polygon fill="black" stroke="black" points="580.99,-152.57 571.83,-147.26 575.68,-157.13 580.99,-152.57"/>
<text text-anchor="middle" x="634.44" y="-181.61" font-family="Times New Roman,serif" font-size="14.00">Move(S)</text>
</g>
</g>
</svg>
