<?xml version="1.0" encoding="UTF-8" standalone="no"?>
<!DOCTYPE svg PUBLIC "-//W3C//DTD SVG 1.1//EN"
 "http://www.w3.org/Graphics/SVG/1.1/DTD/svg11.dtd">
<!-- Generated by graphviz version 2.50.0 (0)
 -->
<!-- Pages: 1 -->
<svg width="1343pt" height="885pt"
 viewBox="0.00 0.00 1342.67 885.08" xmlns="http://www.w3.org/2000/svg" xmlns:xlink="http://www.w3.org/1999/xlink">
<g id="graph0" class="graph" transform="scale(1 1) rotate(0) translate(4 881.08)">
<polygon fill="white" stroke="transparent" points="-4,4 -4,-881.08 1338.67,-881.08 1338.67,4 -4,4"/>
<!-- 0 -->
<g id="node1" class="node">
<title>0</title>
<ellipse fill="none" stroke="black" cx="591.07" cy="-786.57" rx="175.23" ry="90.52"/>
<text text-anchor="middle" x="591.07" y="-835.37" font-family="Times New Roman,serif" font-size="14.00">0 &#45;&gt; {((2, 3), &#39;0&#39;, True), ((1, 3), &#39;A&#39;, True)}</text>
<text text-anchor="middle" x="591.07" y="-820.37" font-family="Times New Roman,serif" font-size="14.00">+++++</text>
<text text-anchor="middle" x="591.07" y="-805.37" font-family="Times New Roman,serif" font-size="14.00">+0A +</text>
<text text-anchor="middle" x="591.07" y="-790.37" font-family="Times New Roman,serif" font-size="14.00">+ &#160;&#160;+</text>
<text text-anchor="middle" x="591.07" y="-775.37" font-family="Times New Roman,serif" font-size="14.00">+ &#160;&#160;+</text>
<text text-anchor="middle" x="591.07" y="-760.37" font-family="Times New Roman,serif" font-size="14.00">+++++</text>
<text text-anchor="middle" x="591.07" y="-745.37" font-family="Times New Roman,serif" font-size="14.00">False</text>
<text text-anchor="middle" x="591.07" y="-730.37" font-family="Times New Roman,serif" font-size="14.00">[Move(S), Move(S)]</text>
</g>
<!-- 1 -->
<g id="node2" class="node">
<title>1</title>
<ellipse fill="none" stroke="black" cx="405.07" cy="-554.55" rx="175.23" ry="90.52"/>
<text text-anchor="middle" x="405.07" y="-603.35" font-family="Times New Roman,serif" font-size="14.00">1 &#45;&gt; {((2, 3), &#39;0&#39;, True), ((1, 3), &#39;A&#39;, True)}</text>
<text text-anchor="middle" x="405.07" y="-588.35" font-family="Times New Roman,serif" font-size="14.00">+++++</text>
<text text-anchor="middle" x="405.07" y="-573.35" font-family="Times New Roman,serif" font-size="14.00">+ 0A+</text>
<text text-anchor="middle" x="405.07" y="-558.35" font-family="Times New Roman,serif" font-size="14.00">+ &#160;&#160;+</text>
<text text-anchor="middle" x="405.07" y="-543.35" font-family="Times New Roman,serif" font-size="14.00">+ &#160;&#160;+</text>
<text text-anchor="middle" x="405.07" y="-528.35" font-family="Times New Roman,serif" font-size="14.00">+++++</text>
<text text-anchor="middle" x="405.07" y="-513.35" font-family="Times New Roman,serif" font-size="14.00">True</text>
<text text-anchor="middle" x="405.07" y="-498.35" font-family="Times New Roman,serif" font-size="14.00">[]</text>
</g>
<!-- 0&#45;&gt;1 -->
<g id="edge7" class="edge">
<title>0&#45;&gt;1</title>
<path fill="none" stroke="black" d="M524.18,-702.85C509.32,-684.48 493.5,-664.91 478.41,-646.24"/>
<polygon fill="black" stroke="black" points="480.99,-643.88 471.98,-638.3 475.55,-648.28 480.99,-643.88"/>
<text text-anchor="middle" x="532.07" y="-666.86" font-family="Times New Roman,serif" font-size="14.00">Push(E,E)</text>
</g>
<!-- 3 -->
<g id="node8" class="node">
<title>3</title>
<ellipse fill="none" stroke="black" cx="778.07" cy="-554.55" rx="175.23" ry="90.52"/>
<text text-anchor="middle" x="778.07" y="-603.35" font-family="Times New Roman,serif" font-size="14.00">3 &#45;&gt; {((2, 3), &#39;0&#39;, True), ((1, 3), &#39;A&#39;, True)}</text>
<text text-anchor="middle" x="778.07" y="-588.35" font-family="Times New Roman,serif" font-size="14.00">+++++</text>
<text text-anchor="middle" x="778.07" y="-573.35" font-family="Times New Roman,serif" font-size="14.00">+ 0 +</text>
<text text-anchor="middle" x="778.07" y="-558.35" font-family="Times New Roman,serif" font-size="14.00">+ A +</text>
<text text-anchor="middle" x="778.07" y="-543.35" font-family="Times New Roman,serif" font-size="14.00">+ &#160;&#160;+</text>
<text text-anchor="middle" x="778.07" y="-528.35" font-family="Times New Roman,serif" font-size="14.00">+++++</text>
<text text-anchor="middle" x="778.07" y="-513.35" font-family="Times New Roman,serif" font-size="14.00">False</text>
<text text-anchor="middle" x="778.07" y="-498.35" font-family="Times New Roman,serif" font-size="14.00">[NoOp, Move(S), NoOp]</text>
</g>
<!-- 0&#45;&gt;3 -->
<g id="edge12" class="edge">
<title>0&#45;&gt;3</title>
<path fill="none" stroke="black" d="M658.31,-702.85C673.25,-684.48 689.15,-664.91 704.33,-646.24"/>
<polygon fill="black" stroke="black" points="707.2,-648.27 710.79,-638.3 701.76,-643.86 707.2,-648.27"/>
<text text-anchor="middle" x="718.57" y="-666.86" font-family="Times New Roman,serif" font-size="14.00">Push(E,S)</text>
</g>
<!-- 5 -->
<g id="node3" class="node">
<title>5</title>
<ellipse fill="none" stroke="black" cx="405.07" cy="-322.53" rx="175.23" ry="90.52"/>
<text text-anchor="middle" x="405.07" y="-371.33" font-family="Times New Roman,serif" font-size="14.00">5 &#45;&gt; {((2, 3), &#39;0&#39;, True), ((1, 3), &#39;A&#39;, True)}</text>
<text text-anchor="middle" x="405.07" y="-356.33" font-family="Times New Roman,serif" font-size="14.00">+++++</text>
<text text-anchor="middle" x="405.07" y="-341.33" font-family="Times New Roman,serif" font-size="14.00">+ &#160;A+</text>
<text text-anchor="middle" x="405.07" y="-326.33" font-family="Times New Roman,serif" font-size="14.00">+ 0 +</text>
<text text-anchor="middle" x="405.07" y="-311.33" font-family="Times New Roman,serif" font-size="14.00">+ &#160;&#160;+</text>
<text text-anchor="middle" x="405.07" y="-296.33" font-family="Times New Roman,serif" font-size="14.00">+++++</text>
<text text-anchor="middle" x="405.07" y="-281.33" font-family="Times New Roman,serif" font-size="14.00">True</text>
<text text-anchor="middle" x="405.07" y="-266.33" font-family="Times New Roman,serif" font-size="14.00">[]</text>
</g>
<!-- 1&#45;&gt;5 -->
<g id="edge4" class="edge">
<title>1&#45;&gt;5</title>
<path fill="none" stroke="black" d="M405.07,-463.96C405.07,-450.69 405.07,-436.95 405.07,-423.48"/>
<polygon fill="black" stroke="black" points="408.57,-423.25 405.07,-413.25 401.57,-423.25 408.57,-423.25"/>
<text text-anchor="middle" x="429.57" y="-434.84" font-family="Times New Roman,serif" font-size="14.00">Move(S)</text>
</g>
<!-- 7 -->
<g id="node7" class="node">
<title>7</title>
<ellipse fill="none" stroke="black" cx="106.07" cy="-322.53" rx="106.13" ry="90.52"/>
<text text-anchor="middle" x="106.07" y="-371.33" font-family="Times New Roman,serif" font-size="14.00">7 &#45;&gt; {((1, 3), &#39;A&#39;, True)}</text>
<text text-anchor="middle" x="106.07" y="-356.33" font-family="Times New Roman,serif" font-size="14.00">+++++</text>
<text text-anchor="middle" x="106.07" y="-341.33" font-family="Times New Roman,serif" font-size="14.00">+0 A+</text>
<text text-anchor="middle" x="106.07" y="-326.33" font-family="Times New Roman,serif" font-size="14.00">+ &#160;&#160;+</text>
<text text-anchor="middle" x="106.07" y="-311.33" font-family="Times New Roman,serif" font-size="14.00">+ &#160;&#160;+</text>
<text text-anchor="middle" x="106.07" y="-296.33" font-family="Times New Roman,serif" font-size="14.00">+++++</text>
<text text-anchor="middle" x="106.07" y="-281.33" font-family="Times New Roman,serif" font-size="14.00">True</text>
<text text-anchor="middle" x="106.07" y="-266.33" font-family="Times New Roman,serif" font-size="14.00">[]</text>
</g>
<!-- 1&#45;&gt;7 -->
<g id="edge6" class="edge">
<title>1&#45;&gt;7</title>
<path fill="none" stroke="black" d="M307.06,-478.97C279.23,-457.72 248.92,-434.51 221.07,-413.04 211.67,-405.8 201.87,-398.21 192.11,-390.64"/>
<polygon fill="black" stroke="black" points="193.98,-387.66 183.93,-384.29 189.69,-393.19 193.98,-387.66"/>
<text text-anchor="middle" x="289.57" y="-434.84" font-family="Times New Roman,serif" font-size="14.00">Move(W)</text>
</g>
<!-- 25 -->
<g id="node4" class="node">
<title>25</title>
<ellipse fill="none" stroke="black" cx="405.07" cy="-90.51" rx="111.03" ry="90.52"/>
<text text-anchor="middle" x="405.07" y="-139.31" font-family="Times New Roman,serif" font-size="14.00">25 &#45;&gt; {((1, 3), &#39;A&#39;, True)}</text>
<text text-anchor="middle" x="405.07" y="-124.31" font-family="Times New Roman,serif" font-size="14.00">+++++</text>
<text text-anchor="middle" x="405.07" y="-109.31" font-family="Times New Roman,serif" font-size="14.00">+ &#160;A+</text>
<text text-anchor="middle" x="405.07" y="-94.31" font-family="Times New Roman,serif" font-size="14.00">+ &#160;&#160;+</text>
<text text-anchor="middle" x="405.07" y="-79.31" font-family="Times New Roman,serif" font-size="14.00">+ 0 +</text>
<text text-anchor="middle" x="405.07" y="-64.31" font-family="Times New Roman,serif" font-size="14.00">+++++</text>
<text text-anchor="middle" x="405.07" y="-49.31" font-family="Times New Roman,serif" font-size="14.00">True</text>
<text text-anchor="middle" x="405.07" y="-34.31" font-family="Times New Roman,serif" font-size="14.00">[]</text>
</g>
<!-- 5&#45;&gt;25 -->
<g id="edge1" class="edge">
<title>5&#45;&gt;25</title>
<path fill="none" stroke="black" d="M405.07,-231.94C405.07,-218.67 405.07,-204.93 405.07,-191.46"/>
<polygon fill="black" stroke="black" points="408.57,-191.23 405.07,-181.23 401.57,-191.23 408.57,-191.23"/>
<text text-anchor="middle" x="429.57" y="-202.82" font-family="Times New Roman,serif" font-size="14.00">Move(S)</text>
</g>
<!-- 26 -->
<g id="node5" class="node">
<title>26</title>
<ellipse fill="none" stroke="black" cx="150.07" cy="-90.51" rx="111.03" ry="90.52"/>
<text text-anchor="middle" x="150.07" y="-139.31" font-family="Times New Roman,serif" font-size="14.00">26 &#45;&gt; {((1, 3), &#39;A&#39;, True)}</text>
<text text-anchor="middle" x="150.07" y="-124.31" font-family="Times New Roman,serif" font-size="14.00">+++++</text>
<text text-anchor="middle" x="150.07" y="-109.31" font-family="Times New Roman,serif" font-size="14.00">+ &#160;A+</text>
<text text-anchor="middle" x="150.07" y="-94.31" font-family="Times New Roman,serif" font-size="14.00">+0 &#160;+</text>
<text text-anchor="middle" x="150.07" y="-79.31" font-family="Times New Roman,serif" font-size="14.00">+ &#160;&#160;+</text>
<text text-anchor="middle" x="150.07" y="-64.31" font-family="Times New Roman,serif" font-size="14.00">+++++</text>
<text text-anchor="middle" x="150.07" y="-49.31" font-family="Times New Roman,serif" font-size="14.00">True</text>
<text text-anchor="middle" x="150.07" y="-34.31" font-family="Times New Roman,serif" font-size="14.00">[]</text>
</g>
<!-- 5&#45;&gt;26 -->
<g id="edge2" class="edge">
<title>5&#45;&gt;26</title>
<path fill="none" stroke="black" d="M318.73,-243.65C290.6,-218.28 259.48,-190.2 231.7,-165.15"/>
<polygon fill="black" stroke="black" points="233.73,-162.27 223.96,-158.17 229.04,-167.46 233.73,-162.27"/>
<text text-anchor="middle" x="313.57" y="-202.82" font-family="Times New Roman,serif" font-size="14.00">Move(W)</text>
</g>
<!-- 28 -->
<g id="node6" class="node">
<title>28</title>
<ellipse fill="none" stroke="black" cx="778.07" cy="-90.51" rx="179.71" ry="90.52"/>
<text text-anchor="middle" x="778.07" y="-139.31" font-family="Times New Roman,serif" font-size="14.00">28 &#45;&gt; {((2, 3), &#39;0&#39;, True), ((1, 3), &#39;A&#39;, True)}</text>
<text text-anchor="middle" x="778.07" y="-124.31" font-family="Times New Roman,serif" font-size="14.00">+++++</text>
<text text-anchor="middle" x="778.07" y="-109.31" font-family="Times New Roman,serif" font-size="14.00">+ &#160;A+</text>
<text text-anchor="middle" x="778.07" y="-94.31" font-family="Times New Roman,serif" font-size="14.00">+ &#160;0+</text>
<text text-anchor="middle" x="778.07" y="-79.31" font-family="Times New Roman,serif" font-size="14.00">+ &#160;&#160;+</text>
<text text-anchor="middle" x="778.07" y="-64.31" font-family="Times New Roman,serif" font-size="14.00">+++++</text>
<text text-anchor="middle" x="778.07" y="-49.31" font-family="Times New Roman,serif" font-size="14.00">True</text>
<text text-anchor="middle" x="778.07" y="-34.31" font-family="Times New Roman,serif" font-size="14.00">[]</text>
</g>
<!-- 5&#45;&gt;28 -->
<g id="edge3" class="edge">
<title>5&#45;&gt;28</title>
<path fill="none" stroke="black" d="M516.73,-252.67C560.78,-225.5 611.52,-194.21 656.5,-166.48"/>
<polygon fill="black" stroke="black" points="658.45,-169.39 665.12,-161.16 654.77,-163.43 658.45,-169.39"/>
<text text-anchor="middle" x="628.07" y="-202.82" font-family="Times New Roman,serif" font-size="14.00">Move(E)</text>
</g>
<!-- 7&#45;&gt;26 -->
<g id="edge5" class="edge">
<title>7&#45;&gt;26</title>
<path fill="none" stroke="black" d="M123.01,-232.93C125.71,-218.84 128.51,-204.19 131.25,-189.9"/>
<polygon fill="black" stroke="black" points="134.68,-190.55 133.13,-180.07 127.81,-189.23 134.68,-190.55"/>
<text text-anchor="middle" x="154.57" y="-202.82" font-family="Times New Roman,serif" font-size="14.00">Move(S)</text>
</g>
<!-- 15 -->
<g id="node9" class="node">
<title>15</title>
<ellipse fill="none" stroke="black" cx="778.07" cy="-322.53" rx="179.71" ry="90.52"/>
<text text-anchor="middle" x="778.07" y="-371.33" font-family="Times New Roman,serif" font-size="14.00">15 &#45;&gt; {((2, 3), &#39;0&#39;, True), ((1, 3), &#39;A&#39;, True)}</text>
<text text-anchor="middle" x="778.07" y="-356.33" font-family="Times New Roman,serif" font-size="14.00">+++++</text>
<text text-anchor="middle" x="778.07" y="-341.33" font-family="Times New Roman,serif" font-size="14.00">+ &#160;&#160;+</text>
<text text-anchor="middle" x="778.07" y="-326.33" font-family="Times New Roman,serif" font-size="14.00">+ 0A+</text>
<text text-anchor="middle" x="778.07" y="-311.33" font-family="Times New Roman,serif" font-size="14.00">+ &#160;&#160;+</text>
<text text-anchor="middle" x="778.07" y="-296.33" font-family="Times New Roman,serif" font-size="14.00">+++++</text>
<text text-anchor="middle" x="778.07" y="-281.33" font-family="Times New Roman,serif" font-size="14.00">False</text>
<text text-anchor="middle" x="778.07" y="-266.33" font-family="Times New Roman,serif" font-size="14.00">[NoOp, NoOp]</text>
</g>
<!-- 3&#45;&gt;15 -->
<g id="edge9" class="edge">
<title>3&#45;&gt;15</title>
<path fill="none" stroke="black" d="M778.07,-463.96C778.07,-450.69 778.07,-436.95 778.07,-423.48"/>
<polygon fill="black" stroke="black" points="781.57,-423.25 778.07,-413.25 774.57,-423.25 781.57,-423.25"/>
<text text-anchor="middle" x="805.57" y="-434.84" font-family="Times New Roman,serif" font-size="14.00">Push(S,E)</text>
</g>
<!-- 16 -->
<g id="node10" class="node">
<title>16</title>
<ellipse fill="none" stroke="black" cx="1155.07" cy="-322.53" rx="179.71" ry="90.52"/>
<text text-anchor="middle" x="1155.07" y="-371.33" font-family="Times New Roman,serif" font-size="14.00">16 &#45;&gt; {((2, 3), &#39;0&#39;, True), ((1, 3), &#39;A&#39;, True)}</text>
<text text-anchor="middle" x="1155.07" y="-356.33" font-family="Times New Roman,serif" font-size="14.00">+++++</text>
<text text-anchor="middle" x="1155.07" y="-341.33" font-family="Times New Roman,serif" font-size="14.00">+ A0+</text>
<text text-anchor="middle" x="1155.07" y="-326.33" font-family="Times New Roman,serif" font-size="14.00">+ &#160;&#160;+</text>
<text text-anchor="middle" x="1155.07" y="-311.33" font-family="Times New Roman,serif" font-size="14.00">+ &#160;&#160;+</text>
<text text-anchor="middle" x="1155.07" y="-296.33" font-family="Times New Roman,serif" font-size="14.00">+++++</text>
<text text-anchor="middle" x="1155.07" y="-281.33" font-family="Times New Roman,serif" font-size="14.00">False</text>
<text text-anchor="middle" x="1155.07" y="-266.33" font-family="Times New Roman,serif" font-size="14.00">[NoOp, NoOp, NoOp]</text>
</g>
<!-- 3&#45;&gt;16 -->
<g id="edge11" class="edge">
<title>3&#45;&gt;16</title>
<path fill="none" stroke="black" d="M890.41,-485C935.26,-457.64 987.03,-426.05 1032.82,-398.11"/>
<polygon fill="black" stroke="black" points="1034.88,-400.96 1041.6,-392.76 1031.24,-394.98 1034.88,-400.96"/>
<text text-anchor="middle" x="1004.57" y="-434.84" font-family="Times New Roman,serif" font-size="14.00">Pull(E,N)</text>
</g>
<!-- 15&#45;&gt;28 -->
<g id="edge8" class="edge">
<title>15&#45;&gt;28</title>
<path fill="none" stroke="black" d="M778.07,-231.94C778.07,-218.67 778.07,-204.93 778.07,-191.46"/>
<polygon fill="black" stroke="black" points="781.57,-191.23 778.07,-181.23 774.57,-191.23 781.57,-191.23"/>
<text text-anchor="middle" x="807.07" y="-202.82" font-family="Times New Roman,serif" font-size="14.00">Push(E,N)</text>
</g>
<!-- 16&#45;&gt;28 -->
<g id="edge10" class="edge">
<title>16&#45;&gt;28</title>
<path fill="none" stroke="black" d="M1041.44,-252.2C996.94,-225.05 945.79,-193.84 900.47,-166.19"/>
<polygon fill="black" stroke="black" points="902.14,-163.11 891.78,-160.89 898.5,-169.09 902.14,-163.11"/>
<text text-anchor="middle" x="1003.57" y="-202.82" font-family="Times New Roman,serif" font-size="14.00">Pull(S,E)</text>
</g>
</g>
</svg>
