<?xml version="1.0" encoding="UTF-8" standalone="no"?>
<!DOCTYPE svg PUBLIC "-//W3C//DTD SVG 1.1//EN"
 "http://www.w3.org/Graphics/SVG/1.1/DTD/svg11.dtd">
<!-- Generated by graphviz version 2.50.0 (0)
 -->
<!-- Pages: 1 -->
<svg width="446pt" height="271pt"
 viewBox="0.00 0.00 446.41 271.22" xmlns="http://www.w3.org/2000/svg" xmlns:xlink="http://www.w3.org/1999/xlink">
<g id="graph0" class="graph" transform="scale(1 1) rotate(0) translate(4 267.22)">
<polygon fill="white" stroke="transparent" points="-4,4 -4,-267.22 442.41,-267.22 442.41,4 -4,4"/>
<!-- 0 -->
<g id="node1" class="node">
<title>0</title>
<ellipse fill="none" stroke="black" cx="219.2" cy="-236.35" rx="219.41" ry="26.74"/>
<text text-anchor="middle" x="219.2" y="-240.15" font-family="Times New Roman,serif" font-size="14.00">0 &#45;&gt; {((3, 2), &#39;0&#39;, True)}</text>
<text text-anchor="middle" x="219.2" y="-225.15" font-family="Times New Roman,serif" font-size="14.00">[NoOp, Move(E), Push(W,W), Pull(E,N), Push(E,S)]</text>
</g>
<!-- 1 -->
<g id="node2" class="node">
<title>1</title>
<ellipse fill="none" stroke="black" cx="219.2" cy="-131.61" rx="103.89" ry="26.74"/>
<text text-anchor="middle" x="219.2" y="-135.41" font-family="Times New Roman,serif" font-size="14.00">1 &#45;&gt; {((3, 2), &#39;0&#39;, True)}</text>
<text text-anchor="middle" x="219.2" y="-120.41" font-family="Times New Roman,serif" font-size="14.00">[NoOp]</text>
</g>
<!-- 0&#45;&gt;1 -->
<g id="edge4" class="edge">
<title>0&#45;&gt;1</title>
<path fill="none" stroke="black" d="M219.2,-209.42C219.2,-197.14 219.2,-182.25 219.2,-168.86"/>
<polygon fill="black" stroke="black" points="222.7,-168.53 219.2,-158.53 215.7,-168.53 222.7,-168.53"/>
<text text-anchor="middle" x="243.7" y="-180.28" font-family="Times New Roman,serif" font-size="14.00">Move(S)</text>
</g>
<!-- 2 -->
<g id="node3" class="node">
<title>2</title>
<ellipse fill="none" stroke="black" cx="49.2" cy="-26.87" rx="48.17" ry="26.74"/>
<text text-anchor="middle" x="49.2" y="-30.67" font-family="Times New Roman,serif" font-size="14.00">2 &#45;&gt; set()</text>
<text text-anchor="middle" x="49.2" y="-15.67" font-family="Times New Roman,serif" font-size="14.00">[]</text>
</g>
<!-- 1&#45;&gt;2 -->
<g id="edge1" class="edge">
<title>1&#45;&gt;2</title>
<path fill="none" stroke="black" d="M179.35,-106.52C152.45,-90.27 117.07,-68.88 89.98,-52.52"/>
<polygon fill="black" stroke="black" points="91.51,-49.35 81.14,-47.17 87.89,-55.34 91.51,-49.35"/>
<text text-anchor="middle" x="170.2" y="-75.54" font-family="Times New Roman,serif" font-size="14.00">Move(E)</text>
</g>
<!-- 4 -->
<g id="node4" class="node">
<title>4</title>
<ellipse fill="none" stroke="black" cx="219.2" cy="-26.87" rx="103.89" ry="26.74"/>
<text text-anchor="middle" x="219.2" y="-30.67" font-family="Times New Roman,serif" font-size="14.00">4 &#45;&gt; {((3, 2), &#39;0&#39;, True)}</text>
<text text-anchor="middle" x="219.2" y="-15.67" font-family="Times New Roman,serif" font-size="14.00">[]</text>
</g>
<!-- 1&#45;&gt;4 -->
<g id="edge2" class="edge">
<title>1&#45;&gt;4</title>
<path fill="none" stroke="black" d="M219.2,-104.68C219.2,-92.4 219.2,-77.51 219.2,-64.12"/>
<polygon fill="black" stroke="black" points="222.7,-63.79 219.2,-53.79 215.7,-63.79 222.7,-63.79"/>
<text text-anchor="middle" x="243.7" y="-75.54" font-family="Times New Roman,serif" font-size="14.00">Move(S)</text>
</g>
<!-- 5 -->
<g id="node5" class="node">
<title>5</title>
<ellipse fill="none" stroke="black" cx="389.2" cy="-26.87" rx="48.17" ry="26.74"/>
<text text-anchor="middle" x="389.2" y="-30.67" font-family="Times New Roman,serif" font-size="14.00">5 &#45;&gt; set()</text>
<text text-anchor="middle" x="389.2" y="-15.67" font-family="Times New Roman,serif" font-size="14.00">[]</text>
</g>
<!-- 1&#45;&gt;5 -->
<g id="edge3" class="edge">
<title>1&#45;&gt;5</title>
<path fill="none" stroke="black" d="M259.06,-106.52C285.95,-90.27 321.34,-68.88 348.42,-52.52"/>
<polygon fill="black" stroke="black" points="350.52,-55.34 357.26,-47.17 346.9,-49.35 350.52,-55.34"/>
<text text-anchor="middle" x="341.7" y="-75.54" font-family="Times New Roman,serif" font-size="14.00">Move(W)</text>
</g>
</g>
</svg>
