<?xml version="1.0" encoding="UTF-8" standalone="no"?>
<!DOCTYPE svg PUBLIC "-//W3C//DTD SVG 1.1//EN"
 "http://www.w3.org/Graphics/SVG/1.1/DTD/svg11.dtd">
<!-- Generated by graphviz version 2.50.0 (0)
 -->
<!-- Pages: 1 -->
<svg width="709pt" height="218pt"
 viewBox="0.00 0.00 709.39 218.00" xmlns="http://www.w3.org/2000/svg" xmlns:xlink="http://www.w3.org/1999/xlink">
<g id="graph0" class="graph" transform="scale(1 1) rotate(0) translate(4 214)">
<polygon fill="white" stroke="transparent" points="-4,4 -4,-214 705.39,-214 705.39,4 -4,4"/>
<!-- 0 -->
<g id="node1" class="node">
<title>0</title>
<ellipse fill="none" stroke="black" cx="511.2" cy="-192" rx="161.37" ry="18"/>
<text text-anchor="middle" x="511.2" y="-188.3" font-family="Times New Roman,serif" font-size="14.00">0 &#45;&gt; {((2, 1), &#39;0&#39;, True), ((1, 3), &#39;A&#39;, True)}</text>
</g>
<!-- 1 -->
<g id="node2" class="node">
<title>1</title>
<ellipse fill="none" stroke="black" cx="182.2" cy="-105" rx="97.48" ry="18"/>
<text text-anchor="middle" x="182.2" y="-101.3" font-family="Times New Roman,serif" font-size="14.00">1 &#45;&gt; {((1, 3), &#39;A&#39;, True)}</text>
</g>
<!-- 0&#45;&gt;1 -->
<g id="edge5" class="edge">
<title>0&#45;&gt;1</title>
<path fill="none" stroke="black" d="M450.47,-175.31C392.46,-160.32 305.35,-137.82 246.26,-122.55"/>
<polygon fill="black" stroke="black" points="246.86,-119.09 236.3,-119.98 245.1,-125.87 246.86,-119.09"/>
<text text-anchor="middle" x="395.2" y="-144.8" font-family="Times New Roman,serif" font-size="14.00">Push(E,E)</text>
</g>
<!-- 2 -->
<g id="node7" class="node">
<title>2</title>
<ellipse fill="none" stroke="black" cx="393.2" cy="-105" rx="95.58" ry="18"/>
<text text-anchor="middle" x="393.2" y="-101.3" font-family="Times New Roman,serif" font-size="14.00">2 &#45;&gt; {((2, 1), &#39;0&#39;, True)}</text>
</g>
<!-- 0&#45;&gt;2 -->
<g id="edge7" class="edge">
<title>0&#45;&gt;2</title>
<path fill="none" stroke="black" d="M487.6,-174C469.47,-160.95 444.27,-142.79 424.47,-128.53"/>
<polygon fill="black" stroke="black" points="426.51,-125.68 416.35,-122.68 422.42,-131.36 426.51,-125.68"/>
<text text-anchor="middle" x="484.7" y="-144.8" font-family="Times New Roman,serif" font-size="14.00">Move(S)</text>
</g>
<!-- 3 -->
<g id="node8" class="node">
<title>3</title>
<ellipse fill="none" stroke="black" cx="551.2" cy="-105" rx="44.39" ry="18"/>
<text text-anchor="middle" x="551.2" y="-101.3" font-family="Times New Roman,serif" font-size="14.00">3 &#45;&gt; set()</text>
</g>
<!-- 0&#45;&gt;3 -->
<g id="edge8" class="edge">
<title>0&#45;&gt;3</title>
<path fill="none" stroke="black" d="M519.29,-173.8C524.91,-161.85 532.51,-145.72 538.87,-132.18"/>
<polygon fill="black" stroke="black" points="542.16,-133.42 543.25,-122.89 535.83,-130.44 542.16,-133.42"/>
<text text-anchor="middle" x="561.7" y="-144.8" font-family="Times New Roman,serif" font-size="14.00">Push(E,S)</text>
</g>
<!-- 4 -->
<g id="node9" class="node">
<title>4</title>
<ellipse fill="none" stroke="black" cx="657.2" cy="-105" rx="44.39" ry="18"/>
<text text-anchor="middle" x="657.2" y="-101.3" font-family="Times New Roman,serif" font-size="14.00">4 &#45;&gt; set()</text>
</g>
<!-- 0&#45;&gt;4 -->
<g id="edge9" class="edge">
<title>0&#45;&gt;4</title>
<path fill="none" stroke="black" d="M555.63,-174.51C568.11,-169.22 581.47,-162.92 593.2,-156 606.68,-148.04 620.51,-137.58 631.84,-128.28"/>
<polygon fill="black" stroke="black" points="634.2,-130.87 639.62,-121.77 629.7,-125.51 634.2,-130.87"/>
<text text-anchor="middle" x="643.2" y="-144.8" font-family="Times New Roman,serif" font-size="14.00">Pull(S,W)</text>
</g>
<!-- 5 -->
<g id="node3" class="node">
<title>5</title>
<ellipse fill="none" stroke="black" cx="256.2" cy="-18" rx="44.39" ry="18"/>
<text text-anchor="middle" x="256.2" y="-14.3" font-family="Times New Roman,serif" font-size="14.00">5 &#45;&gt; set()</text>
</g>
<!-- 1&#45;&gt;5 -->
<g id="edge1" class="edge">
<title>1&#45;&gt;5</title>
<path fill="none" stroke="black" d="M201.87,-87.27C207.99,-81.7 214.6,-75.31 220.2,-69 226.97,-61.36 233.7,-52.46 239.47,-44.31"/>
<polygon fill="black" stroke="black" points="242.51,-46.07 245.32,-35.85 236.76,-42.09 242.51,-46.07"/>
<text text-anchor="middle" x="256.7" y="-57.8" font-family="Times New Roman,serif" font-size="14.00">Move(S)</text>
</g>
<!-- 7 -->
<g id="node4" class="node">
<title>7</title>
<ellipse fill="none" stroke="black" cx="150.2" cy="-18" rx="44.39" ry="18"/>
<text text-anchor="middle" x="150.2" y="-14.3" font-family="Times New Roman,serif" font-size="14.00">7 &#45;&gt; set()</text>
</g>
<!-- 1&#45;&gt;7 -->
<g id="edge2" class="edge">
<title>1&#45;&gt;7</title>
<path fill="none" stroke="black" d="M173.16,-86.8C170.41,-81.21 167.5,-74.92 165.2,-69 162.34,-61.69 159.7,-53.6 157.46,-46.09"/>
<polygon fill="black" stroke="black" points="160.79,-45 154.66,-36.36 154.06,-46.93 160.79,-45"/>
<text text-anchor="middle" x="192.7" y="-57.8" font-family="Times New Roman,serif" font-size="14.00">Move(W)</text>
</g>
<!-- 8 -->
<g id="node5" class="node">
<title>8</title>
<ellipse fill="none" stroke="black" cx="378.2" cy="-18" rx="44.39" ry="18"/>
<text text-anchor="middle" x="378.2" y="-14.3" font-family="Times New Roman,serif" font-size="14.00">8 &#45;&gt; set()</text>
</g>
<!-- 1&#45;&gt;8 -->
<g id="edge3" class="edge">
<title>1&#45;&gt;8</title>
<path fill="none" stroke="black" d="M230.77,-89.33C248.18,-83.59 267.79,-76.57 285.2,-69 305.81,-60.03 328.01,-48.18 345.55,-38.27"/>
<polygon fill="black" stroke="black" points="347.32,-41.29 354.27,-33.29 343.85,-35.21 347.32,-41.29"/>
<text text-anchor="middle" x="342.2" y="-57.8" font-family="Times New Roman,serif" font-size="14.00">Pull(S,W)</text>
</g>
<!-- 9 -->
<g id="node6" class="node">
<title>9</title>
<ellipse fill="none" stroke="black" cx="44.2" cy="-18" rx="44.39" ry="18"/>
<text text-anchor="middle" x="44.2" y="-14.3" font-family="Times New Roman,serif" font-size="14.00">9 &#45;&gt; set()</text>
</g>
<!-- 1&#45;&gt;9 -->
<g id="edge4" class="edge">
<title>1&#45;&gt;9</title>
<path fill="none" stroke="black" d="M139.73,-88.59C126.92,-83.17 113.11,-76.53 101.2,-69 89.08,-61.34 76.96,-51.15 67.03,-41.97"/>
<polygon fill="black" stroke="black" points="69.24,-39.24 59.58,-34.89 64.42,-44.31 69.24,-39.24"/>
<text text-anchor="middle" x="128.7" y="-57.8" font-family="Times New Roman,serif" font-size="14.00">Push(E,S)</text>
</g>
<!-- 2&#45;&gt;8 -->
<g id="edge6" class="edge">
<title>2&#45;&gt;8</title>
<path fill="none" stroke="black" d="M390.16,-86.8C388.11,-75.16 385.35,-59.55 383,-46.24"/>
<polygon fill="black" stroke="black" points="386.41,-45.41 381.23,-36.18 379.52,-46.63 386.41,-45.41"/>
<text text-anchor="middle" x="412.2" y="-57.8" font-family="Times New Roman,serif" font-size="14.00">Move(E)</text>
</g>
</g>
</svg>
